<svg width="53" height="52" viewBox="0 0 53 52" fill="none" xmlns="http://www.w3.org/2000/svg">
<g filter="url(#filter0_d_3_982)">
<path d="M26.444 9.21677C32.7875 9.21677 38.8183 10.5506 44.2699 12.952C44.4864 14.3548 44.5988 15.7919 44.5988 17.255C44.5988 29.1958 37.1172 39.3972 26.5654 43.4683C16.0136 39.3972 8.53199 29.1958 8.53198 17.255C8.53198 15.7523 8.65051 14.2771 8.87869 12.8382C14.2616 10.5085 20.2015 9.21677 26.444 9.21677Z" fill="url(#paint0_linear_3_982)"/>
<path d="M26.444 9.21677C32.7875 9.21677 38.8183 10.5506 44.2699 12.952C44.4864 14.3548 44.5988 15.7919 44.5988 17.255C44.5988 29.1958 37.1172 39.3972 26.5654 43.4683C16.0136 39.3972 8.53199 29.1958 8.53198 17.255C8.53198 15.7523 8.65051 14.2771 8.87869 12.8382C9.52335 12.5592 10.176 12.2951 10.8362 12.0463C10.8362 12.0463 8.78108 28.7401 19.3056 27.1521C31.823 21.8587 26.444 9.21677 26.444 9.21677Z" fill="url(#paint1_linear_3_982)"/>
<path d="M42.7526 12.3172C43.2632 12.5196 43.7692 12.7313 44.2702 12.952C44.4867 14.3548 44.5992 15.7919 44.5992 17.255C44.5991 29.1958 37.1175 39.3972 26.5657 43.4683C22.9331 42.0667 19.6643 39.9386 16.9395 37.2631C22.3224 34.9334 36.5101 12.3172 42.7526 12.3172Z" fill="url(#paint2_linear_3_982)"/>
<g filter="url(#filter1_i_3_982)">
<path d="M26.5652 22.7116C21.6639 24.5839 23.0557 15.8734 26.5652 9.21676C13.9179 27.4317 20.4536 29.8523 26.5652 27.5528C28.8169 26.7056 30.4531 28.521 30.1359 30.8206C29.7047 33.947 29.4098 35.3592 26.5652 43.4682C30.2393 38.7101 34.4325 32.0207 34.4325 27.1897C34.4325 23.6798 31.9514 20.6541 26.5652 22.7116Z" fill="url(#paint3_linear_3_982)"/>
</g>
</g>
<path d="M19.6747 1.33065C9.82495 4.68702 2.74012 14.0179 2.74012 25.0036C2.74012 38.8127 13.9346 50.0072 27.7437 50.0072C34.8316 50.0072 41.2305 47.0579 45.7805 42.3196C41.0737 48.2194 33.8227 52 25.6886 52C11.5012 52 0 40.4988 0 26.3114C0 14.195 8.3885 4.03787 19.6747 1.33065Z" fill="url(#paint4_linear_3_982)" fill-opacity="0.48"/>
<path d="M27.7437 0C41.5528 0 52.7473 11.1945 52.7473 25.0036C52.7473 31.7248 50.0952 37.8265 45.7805 42.3196C49.2834 37.929 51.3773 32.3647 51.3773 26.3114C51.3773 12.1239 39.8761 0.622755 25.6886 0.622755C23.6176 0.622755 21.6038 0.867915 19.6747 1.33065C22.2062 0.468034 24.9203 0 27.7437 0Z" fill="url(#paint5_linear_3_982)" fill-opacity="0.48"/>
<defs>
<filter id="filter0_d_3_982" x="3.6745" y="4.85748" width="46.0312" height="44.2156" filterUnits="userSpaceOnUse" color-interpolation-filters="sRGB">
<feFlood flood-opacity="0" result="BackgroundImageFix"/>
<feColorMatrix in="SourceAlpha" type="matrix" values="0 0 0 0 0 0 0 0 0 0 0 0 0 0 0 0 0 0 127 0" result="hardAlpha"/>
<feOffset dx="0.124551" dy="0.622754"/>
<feGaussianBlur stdDeviation="2.49102"/>
<feComposite in2="hardAlpha" operator="out"/>
<feColorMatrix type="matrix" values="0 0 0 0 0.027451 0 0 0 0 0.101961 0 0 0 0 0.160784 0 0 0 1 0"/>
<feBlend mode="normal" in2="BackgroundImageFix" result="effect1_dropShadow_3_982"/>
<feBlend mode="normal" in="SourceGraphic" in2="effect1_dropShadow_3_982" result="shape"/>
</filter>
<filter id="filter1_i_3_982" x="19.3286" y="9.21676" width="15.104" height="35.2478" filterUnits="userSpaceOnUse" color-interpolation-filters="sRGB">
<feFlood flood-opacity="0" result="BackgroundImageFix"/>
<feBlend mode="normal" in="SourceGraphic" in2="BackgroundImageFix" result="shape"/>
<feColorMatrix in="SourceAlpha" type="matrix" values="0 0 0 0 0 0 0 0 0 0 0 0 0 0 0 0 0 0 127 0" result="hardAlpha"/>
<feOffset dy="0.996407"/>
<feGaussianBlur stdDeviation="0.622754"/>
<feComposite in2="hardAlpha" operator="arithmetic" k2="-1" k3="1"/>
<feColorMatrix type="matrix" values="0 0 0 0 0.027451 0 0 0 0 0.101961 0 0 0 0 0.160784 0 0 0 0.65 0"/>
<feBlend mode="normal" in2="shape" result="effect1_innerShadow_3_982"/>
</filter>
<linearGradient id="paint0_linear_3_982" x1="18.6829" y1="9.21677" x2="26.5654" y2="43.4683" gradientUnits="userSpaceOnUse">
<stop stop-color="#ECF7FF"/>
<stop offset="1" stop-color="white"/>
</linearGradient>
<linearGradient id="paint1_linear_3_982" x1="26.5654" y1="9.21677" x2="26.5654" y2="43.4683" gradientUnits="userSpaceOnUse">
<stop stop-color="#D4F1FF"/>
<stop offset="1" stop-color="#C4D4DC"/>
</linearGradient>
<linearGradient id="paint2_linear_3_982" x1="30.7693" y1="12.3172" x2="30.7693" y2="43.4683" gradientUnits="userSpaceOnUse">
<stop stop-color="#C9E6F3"/>
<stop offset="1" stop-color="#7CADC3"/>
</linearGradient>
<linearGradient id="paint3_linear_3_982" x1="15.8495" y1="15.5689" x2="37.7082" y2="36.5246" gradientUnits="userSpaceOnUse">
<stop stop-color="#071A29"/>
<stop offset="1" stop-color="#EF0C1E"/>
</linearGradient>
<linearGradient id="paint4_linear_3_982" x1="20.2084" y1="-1.93054" x2="46.1772" y2="44.2156" gradientUnits="userSpaceOnUse">
<stop stop-color="white" stop-opacity="0"/>
<stop offset="0.379808" stop-color="white" stop-opacity="0.8"/>
<stop offset="0.543269" stop-color="white"/>
<stop offset="0.682692" stop-color="white" stop-opacity="0.511628"/>
<stop offset="1" stop-color="white" stop-opacity="0"/>
</linearGradient>
<linearGradient id="paint5_linear_3_982" x1="20.2084" y1="-1.93054" x2="46.1772" y2="44.2156" gradientUnits="userSpaceOnUse">
<stop stop-color="white" stop-opacity="0"/>
<stop offset="0.379808" stop-color="white" stop-opacity="0.8"/>
<stop offset="0.543269" stop-color="white"/>
<stop offset="0.682692" stop-color="white" stop-opacity="0.511628"/>
<stop offset="1" stop-color="white" stop-opacity="0"/>
</linearGradient>
</defs>
</svg>
