<svg width="268" height="370" viewBox="0 0 268 370" fill="none" xmlns="http://www.w3.org/2000/svg">
<g clip-path="url(#clip0_4_1269)">
<rect width="267.857" height="580" rx="22.8571" fill="url(#paint0_linear_4_1269)"/>
<path d="M38.4501 16.3304C38.9086 16.3304 39.3434 16.4154 39.7545 16.5854C40.1656 16.7514 40.5293 17.0123 40.8455 17.368C41.1657 17.7198 41.4167 18.1724 41.5985 18.7258C41.7803 19.2752 41.8712 19.9373 41.8712 20.7121V20.7239C41.8712 21.6844 41.7329 22.5066 41.4562 23.1904C41.1795 23.8743 40.7822 24.4 40.2644 24.7676C39.7506 25.1312 39.1359 25.3131 38.4205 25.3131C37.8948 25.3131 37.4204 25.2182 36.9975 25.0285C36.5785 24.8348 36.2307 24.5699 35.954 24.234C35.6812 23.894 35.4974 23.5066 35.4026 23.0718L35.3907 23.0066H36.8908L36.9145 23.0659C36.9896 23.2636 37.0963 23.4375 37.2347 23.5877C37.377 23.7379 37.5469 23.8545 37.7446 23.9375C37.9461 24.0166 38.1715 24.0561 38.4205 24.0561C38.8711 24.0561 39.2387 23.9237 39.5233 23.6588C39.8118 23.39 40.0273 23.0323 40.1696 22.5857C40.3158 22.135 40.3988 21.637 40.4186 21.0915C40.4225 21.0322 40.4245 20.9749 40.4245 20.9196C40.4245 20.8603 40.4245 20.803 40.4245 20.7476L40.1577 19.3187C40.1577 18.9946 40.0826 18.7001 39.9324 18.4353C39.7822 18.1704 39.5786 17.9609 39.3217 17.8068C39.0687 17.6526 38.7822 17.5755 38.462 17.5755C38.1537 17.5755 37.871 17.6506 37.6141 17.8009C37.3572 17.9511 37.1516 18.1566 36.9975 18.4175C36.8433 18.6744 36.7663 18.963 36.7663 19.2831V19.295C36.7663 19.627 36.8394 19.9215 36.9856 20.1784C37.1319 20.4314 37.3315 20.631 37.5845 20.7773C37.8374 20.9235 38.126 20.9967 38.4501 20.9967C38.7743 20.9967 39.0648 20.9255 39.3217 20.7832C39.5786 20.6409 39.7822 20.4433 39.9324 20.1903C40.0826 19.9373 40.1577 19.6507 40.1577 19.3306V19.3187H40.5135V20.8959H40.3059C40.2032 21.1212 40.051 21.3307 39.8494 21.5243C39.6478 21.718 39.3988 21.8742 39.1023 21.9927C38.8098 22.1113 38.4659 22.1706 38.0707 22.1706C37.5252 22.1706 37.0429 22.0481 36.624 21.803C36.205 21.5579 35.8749 21.222 35.6338 20.7951C35.3966 20.3682 35.278 19.8859 35.278 19.3484V19.3365C35.278 18.7554 35.4124 18.2396 35.6812 17.789C35.954 17.3344 36.3295 16.9787 36.8078 16.7217C37.29 16.4609 37.8374 16.3304 38.4501 16.3304ZM44.5631 23.9494C44.2943 23.9494 44.069 23.8604 43.8871 23.6825C43.7093 23.5007 43.6203 23.2794 43.6203 23.0185C43.6203 22.7537 43.7093 22.5323 43.8871 22.3544C44.069 22.1726 44.2943 22.0817 44.5631 22.0817C44.8358 22.0817 45.0611 22.1726 45.239 22.3544C45.4169 22.5323 45.5058 22.7537 45.5058 23.0185C45.5058 23.2794 45.4169 23.5007 45.239 23.6825C45.0611 23.8604 44.8358 23.9494 44.5631 23.9494ZM44.5631 19.5499C44.2943 19.5499 44.069 19.461 43.8871 19.2831C43.7093 19.1013 43.6203 18.88 43.6203 18.6191C43.6203 18.3542 43.7093 18.1329 43.8871 17.955C44.069 17.7732 44.2943 17.6823 44.5631 17.6823C44.8358 17.6823 45.0611 17.7732 45.239 17.955C45.4169 18.1329 45.5058 18.3542 45.5058 18.6191C45.5058 18.88 45.4169 19.1013 45.239 19.2831C45.0611 19.461 44.8358 19.5499 44.5631 19.5499ZM51.4053 25.0996V23.4572H47.2193V22.2062C47.4446 21.8228 47.6699 21.4374 47.8952 21.05C48.1245 20.6626 48.3557 20.2773 48.5889 19.8938C48.8261 19.5065 49.0613 19.125 49.2945 18.7495C49.5317 18.37 49.7669 17.9965 50.0001 17.6289C50.2372 17.2573 50.4744 16.8957 50.7116 16.5439H52.8638V22.1943H54.02V23.4572H52.8638V25.0996H51.4053ZM48.6423 22.2299H51.429V17.7653H51.3401C51.1661 18.0341 50.9863 18.3108 50.8005 18.5954C50.6187 18.88 50.4349 19.1705 50.2491 19.4669C50.0633 19.7634 49.8795 20.0618 49.6977 20.3622C49.5159 20.6587 49.336 20.9571 49.1581 21.2575C48.9803 21.554 48.8083 21.8485 48.6423 22.141V22.2299ZM57.5597 25.0996V18.0499H57.453L55.3244 19.5499V18.1151L57.5597 16.5439H59.0835V25.0996H57.5597Z" fill="white"/>
<rect opacity="0.35" x="227.178" y="16.7857" width="17.1429" height="8.57143" rx="2.71429" stroke="white" stroke-width="0.714286"/>
<path opacity="0.4" d="M245.392 19.8435V22.7546C245.967 22.508 246.341 21.9345 246.341 21.299C246.341 20.6636 245.967 20.0901 245.392 19.8435Z" fill="white"/>
<rect x="228.25" y="17.8571" width="15" height="6.42857" rx="1.78571" fill="white"/>
<path fill-rule="evenodd" clip-rule="evenodd" d="M215.586 18.6455C217.362 18.6456 219.071 19.3042 220.359 20.4853C220.456 20.5765 220.61 20.5753 220.706 20.4827L221.633 19.5802C221.681 19.5333 221.708 19.4697 221.708 19.4035C221.707 19.3372 221.68 19.2739 221.631 19.2275C218.251 16.1027 212.92 16.1027 209.541 19.2275C209.492 19.2739 209.464 19.3372 209.464 19.4034C209.463 19.4696 209.49 19.5332 209.538 19.5802L210.465 20.4827C210.561 20.5755 210.716 20.5766 210.813 20.4853C212.101 19.3042 213.809 18.6455 215.586 18.6455ZM215.584 21.66C216.553 21.66 217.488 22.0255 218.207 22.6856C218.304 22.7793 218.457 22.7772 218.552 22.681L219.471 21.7386C219.52 21.6892 219.547 21.6222 219.546 21.5525C219.545 21.4828 219.517 21.4163 219.468 21.3679C217.279 19.303 213.89 19.303 211.702 21.3679C211.652 21.4163 211.624 21.4828 211.623 21.5525C211.623 21.6222 211.65 21.6893 211.698 21.7386L212.617 22.681C212.712 22.7772 212.865 22.7793 212.962 22.6856C213.681 22.0259 214.615 21.6604 215.584 21.66ZM217.387 23.6554C217.388 23.7307 217.362 23.8032 217.314 23.8559L215.759 25.6093C215.713 25.6608 215.651 25.6898 215.586 25.6898C215.521 25.6898 215.459 25.6608 215.414 25.6093L213.859 23.8559C213.811 23.8032 213.784 23.7306 213.786 23.6554C213.787 23.5801 213.816 23.5088 213.866 23.4584C214.859 22.5199 216.313 22.5199 217.306 23.4584C217.356 23.5089 217.385 23.5802 217.387 23.6554Z" fill="white"/>
<path fill-rule="evenodd" clip-rule="evenodd" d="M204.107 17.63C204.107 17.1778 203.766 16.8113 203.345 16.8113H202.583C202.162 16.8113 201.821 17.1778 201.821 17.63V24.7257C201.821 25.1779 202.162 25.5444 202.583 25.5444H203.345C203.766 25.5444 204.107 25.1779 204.107 24.7257V17.63ZM198.797 18.5579H199.559C199.979 18.5579 200.321 18.9333 200.321 19.3963V24.706C200.321 25.1691 199.979 25.5444 199.559 25.5444H198.797C198.376 25.5444 198.035 25.1691 198.035 24.706V19.3963C198.035 18.9333 198.376 18.5579 198.797 18.5579ZM195.703 20.4501H194.941C194.52 20.4501 194.179 20.8302 194.179 21.2991V24.6954C194.179 25.1643 194.52 25.5444 194.941 25.5444H195.703C196.123 25.5444 196.465 25.1643 196.465 24.6954V21.2991C196.465 20.8302 196.123 20.4501 195.703 20.4501ZM191.916 22.1967H191.154C190.734 22.1967 190.393 22.5714 190.393 23.0337V24.7075C190.393 25.1697 190.734 25.5444 191.154 25.5444H191.916C192.337 25.5444 192.678 25.1697 192.678 24.7075V23.0337C192.678 22.5714 192.337 22.1967 191.916 22.1967Z" fill="white"/>
<path d="M28.1856 57.9326L23.2611 62.8571L28.1856 67.7816C28.3948 67.9908 28.3948 68.33 28.1856 68.5392C27.9764 68.7484 27.6372 68.7484 27.428 68.5392L22.1247 63.2359C22.0242 63.1354 21.9678 62.9992 21.9678 62.8571C21.9678 62.715 22.0242 62.5788 22.1247 62.4783L27.428 57.175C27.4541 57.1488 27.4823 57.1259 27.512 57.1063C27.7199 56.969 28.0025 56.9919 28.1856 57.175C28.3948 57.3842 28.3948 57.7234 28.1856 57.9326Z" fill="white"/>
<path d="M48.6284 67.0287C45.9141 67.0287 43.5998 64.7002 43.5998 61.943C43.5998 59.1859 45.9141 56.8716 48.6284 56.8716C49.9855 56.8716 51.2426 57.443 52.1569 58.3716L51.3998 59.143C50.6855 58.3859 49.6998 57.9002 48.6284 57.9002C46.5141 57.9002 44.7284 59.7573 44.7284 61.943C44.7284 64.143 46.5141 66.0002 48.6284 66.0002C49.6998 66.0002 50.6855 65.5144 51.3998 64.7573L52.1569 65.5287C51.2426 66.443 49.9855 67.0287 48.6284 67.0287ZM57.0196 67.0287C54.9482 67.0287 53.191 65.2573 53.191 63.1573C53.191 61.0573 54.9482 59.3002 57.0196 59.3002C59.091 59.3002 60.8339 61.0573 60.8339 63.1573C60.8339 65.2573 59.091 67.0287 57.0196 67.0287ZM57.0196 66.0716C58.4768 66.0716 59.7053 64.743 59.7053 63.1573C59.7053 61.5859 58.4768 60.2573 57.0196 60.2573C55.5482 60.2573 54.3196 61.5859 54.3196 63.1573C54.3196 64.743 55.5482 66.0716 57.0196 66.0716ZM70.5276 59.3002C72.0705 59.3002 73.1562 60.4859 73.1562 62.1573V66.8573H72.0847V62.3002C72.0847 61.1002 71.3847 60.2573 70.3847 60.2573C69.2133 60.2573 68.3847 61.043 68.3847 62.1573V66.8573H67.3133V62.3002C67.3133 61.1002 66.6133 60.2573 65.6133 60.2573C64.4419 60.2573 63.6133 61.043 63.6133 62.1573V66.8573H62.5419V59.4716H63.6133V60.5573C63.9847 59.7859 64.7847 59.3002 65.7562 59.3002C66.8705 59.3002 67.7419 59.9144 68.1419 60.8716C68.4419 59.9144 69.4133 59.3002 70.5276 59.3002ZM79.1166 59.3002C81.0595 59.3002 82.5166 60.9002 82.5166 63.1573C82.5166 65.4287 81.0595 67.0287 79.1166 67.0287C77.9309 67.0287 76.9881 66.443 76.4309 65.4716V69.3144H75.3595V59.4716H76.4309V60.8573C76.9881 59.8859 77.9309 59.3002 79.1166 59.3002ZM78.9166 66.0716C80.3595 66.0716 81.3881 64.8573 81.3881 63.1573C81.3881 61.4573 80.3595 60.2573 78.9166 60.2573C77.4595 60.2573 76.4309 61.4573 76.4309 63.1573C76.4309 64.8573 77.4595 66.0716 78.9166 66.0716ZM84.308 66.8573V56.8716H85.3794V66.8573H84.308ZM90.8117 66.0716C91.6832 66.0716 92.6832 65.6859 93.1403 65.1859L93.7975 65.8859C93.1546 66.5859 91.8546 67.0287 90.826 67.0287C88.8546 67.0287 87.0832 65.4144 87.0832 63.143C87.0832 60.943 88.7403 59.3002 90.726 59.3002C92.9546 59.3002 94.226 60.9859 94.226 63.5716H88.1832C88.3403 65.0144 89.3546 66.0716 90.8117 66.0716ZM90.7689 60.2573C89.4546 60.2573 88.3974 61.1859 88.1974 62.6144H93.1689C93.026 61.2859 92.2403 60.2573 90.7689 60.2573ZM99.1607 65.7716L99.6893 66.5573C99.3035 66.8573 98.8178 67.0287 98.3178 67.0287C97.2607 67.0287 96.5178 66.243 96.5178 65.143V60.4287H95.3607V59.4716H96.5178V57.443H97.5893V59.4716H99.4035V60.4287H97.5893V65.143C97.5893 65.6859 97.9607 66.0716 98.3893 66.0716C98.7178 66.0716 99.0035 65.943 99.1607 65.7716ZM104.472 66.0716C105.344 66.0716 106.344 65.6859 106.801 65.1859L107.458 65.8859C106.815 66.5859 105.515 67.0287 104.487 67.0287C102.515 67.0287 100.744 65.4144 100.744 63.143C100.744 60.943 102.401 59.3002 104.387 59.3002C106.615 59.3002 107.887 60.9859 107.887 63.5716H101.844C102.001 65.0144 103.015 66.0716 104.472 66.0716ZM104.43 60.2573C103.115 60.2573 102.058 61.1859 101.858 62.6144H106.83C106.687 61.2859 105.901 60.2573 104.43 60.2573ZM117.103 67.0144C115.489 67.0144 114.218 66.4287 113.232 65.4573L113.932 64.5859C114.76 65.4144 115.775 66.0002 117.146 66.0002C118.66 66.0002 119.432 65.1716 119.432 64.2859C119.432 63.243 118.503 62.8287 116.789 62.4287C114.818 61.9716 113.575 61.3573 113.575 59.6573C113.575 58.0859 114.975 56.8573 116.86 56.8573C118.318 56.8573 119.403 57.4287 120.303 58.2573L119.618 59.1287C118.803 58.343 117.832 57.8716 116.803 57.8716C115.589 57.8716 114.703 58.6716 114.703 59.5716C114.703 60.5859 115.675 60.943 117.346 61.343C119.218 61.7859 120.56 62.4573 120.56 64.1859C120.56 65.743 119.389 67.0144 117.103 67.0144ZM125.689 66.0716C126.56 66.0716 127.56 65.6859 128.017 65.1859L128.674 65.8859C128.032 66.5859 126.732 67.0287 125.703 67.0287C123.732 67.0287 121.96 65.4144 121.96 63.143C121.96 60.943 123.617 59.3002 125.603 59.3002C127.832 59.3002 129.103 60.9859 129.103 63.5716H123.06C123.217 65.0144 124.232 66.0716 125.689 66.0716ZM125.646 60.2573C124.332 60.2573 123.274 61.1859 123.074 62.6144H128.046C127.903 61.2859 127.117 60.2573 125.646 60.2573ZM134.038 65.7716L134.566 66.5573C134.181 66.8573 133.695 67.0287 133.195 67.0287C132.138 67.0287 131.395 66.243 131.395 65.143V60.4287H130.238V59.4716H131.395V57.443H132.466V59.4716H134.281V60.4287H132.466V65.143C132.466 65.6859 132.838 66.0716 133.266 66.0716C133.595 66.0716 133.881 65.943 134.038 65.7716ZM141.221 59.4716H142.292V66.8573H141.221V65.6716C140.792 66.4573 139.835 67.0287 138.792 67.0287C137.164 67.0287 136.021 65.843 136.021 64.1716V59.4716H137.092V64.0287C137.092 65.2287 137.849 66.0716 138.935 66.0716C140.178 66.0716 141.221 65.2002 141.221 64.1716V59.4716ZM148.271 59.3002C150.214 59.3002 151.671 60.9002 151.671 63.1573C151.671 65.4287 150.214 67.0287 148.271 67.0287C147.085 67.0287 146.142 66.443 145.585 65.4716V69.3144H144.514V59.4716H145.585V60.8573C146.142 59.8859 147.085 59.3002 148.271 59.3002ZM148.071 66.0716C149.514 66.0716 150.542 64.8573 150.542 63.1573C150.542 61.4573 149.514 60.2573 148.071 60.2573C146.614 60.2573 145.585 61.4573 145.585 63.1573C145.585 64.8573 146.614 66.0716 148.071 66.0716Z" fill="white"/>
<g filter="url(#filter0_ii_4_1269)">
<rect x="11.4285" y="94.2856" width="245" height="78.8571" rx="8.57143" fill="#0A243A"/>
<rect x="11.4285" y="94.2856" width="245" height="78.8571" rx="8.57143" fill="url(#paint1_radial_4_1269)"/>
<path d="M84.0105 112.901C84.0105 113.981 83.2305 114.801 82.1405 115.031L83.9205 117.571H83.0305L81.2905 115.101H79.4705V117.571H78.6905V110.701H81.4805C82.9005 110.701 84.0105 111.611 84.0105 112.901ZM79.4705 111.441V114.361H81.3405C82.4605 114.361 83.2205 113.821 83.2205 112.901C83.2205 111.981 82.4605 111.441 81.3405 111.441H79.4705ZM87.4514 117.021C88.0614 117.021 88.7614 116.751 89.0814 116.401L89.5414 116.891C89.0914 117.381 88.1814 117.691 87.4614 117.691C86.0814 117.691 84.8414 116.561 84.8414 114.971C84.8414 113.431 86.0014 112.281 87.3914 112.281C88.9514 112.281 89.8414 113.461 89.8414 115.271H85.6114C85.7214 116.281 86.4314 117.021 87.4514 117.021ZM87.4214 112.951C86.5014 112.951 85.7614 113.601 85.6214 114.601H89.1014C89.0014 113.671 88.4514 112.951 87.4214 112.951ZM96.6156 112.281C97.6956 112.281 98.4556 113.111 98.4556 114.281V117.571H97.7056V114.381C97.7056 113.541 97.2156 112.951 96.5156 112.951C95.6956 112.951 95.1156 113.501 95.1156 114.281V117.571H94.3656V114.381C94.3656 113.541 93.8756 112.951 93.1756 112.951C92.3556 112.951 91.7756 113.501 91.7756 114.281V117.571H91.0256V112.401H91.7756V113.161C92.0356 112.621 92.5956 112.281 93.2756 112.281C94.0556 112.281 94.6656 112.711 94.9456 113.381C95.1556 112.711 95.8356 112.281 96.6156 112.281ZM102.028 112.281C103.438 112.281 104.128 113.171 104.128 114.421V117.571H103.378V116.761C103.008 117.371 102.238 117.691 101.558 117.691C100.468 117.691 99.668 117.061 99.668 116.041C99.668 115.011 100.588 114.321 101.698 114.321C102.258 114.321 102.848 114.441 103.378 114.611V114.421C103.378 113.721 103.098 112.921 101.978 112.921C101.458 112.921 100.938 113.151 100.468 113.391L100.168 112.781C100.908 112.411 101.528 112.281 102.028 112.281ZM101.688 117.031C102.368 117.031 103.178 116.681 103.378 115.951V115.161C102.908 115.031 102.378 114.951 101.818 114.951C101.048 114.951 100.398 115.391 100.398 116.011C100.398 116.651 100.958 117.031 101.688 117.031ZM105.987 111.461C105.707 111.461 105.487 111.231 105.487 110.961C105.487 110.701 105.707 110.471 105.987 110.471C106.257 110.471 106.477 110.701 106.477 110.961C106.477 111.231 106.257 111.461 105.987 111.461ZM105.607 117.571V112.401H106.357V117.571H105.607ZM110.28 112.281C111.42 112.281 112.22 113.111 112.22 114.281V117.571H111.47V114.381C111.47 113.541 110.94 112.951 110.18 112.951C109.31 112.951 108.58 113.561 108.58 114.281V117.571H107.83V112.401H108.58V113.231C108.88 112.681 109.55 112.281 110.28 112.281ZM114.065 111.461C113.785 111.461 113.565 111.231 113.565 110.961C113.565 110.701 113.785 110.471 114.065 110.471C114.335 110.471 114.555 110.701 114.555 110.961C114.555 111.231 114.335 111.461 114.065 111.461ZM113.685 117.571V112.401H114.435V117.571H113.685ZM118.359 112.281C119.499 112.281 120.299 113.111 120.299 114.281V117.571H119.549V114.381C119.549 113.541 119.019 112.951 118.259 112.951C117.389 112.951 116.659 113.561 116.659 114.281V117.571H115.909V112.401H116.659V113.231C116.959 112.681 117.629 112.281 118.359 112.281ZM125.794 112.401H126.544V117.021C126.544 118.351 125.494 119.291 124.004 119.291C123.164 119.291 122.384 119.001 121.914 118.601L122.244 118.011C122.644 118.391 123.264 118.621 123.904 118.621C125.094 118.621 125.794 118.031 125.794 117.021V116.181C125.394 116.811 124.734 117.191 123.914 117.191C122.524 117.191 121.534 116.171 121.534 114.731C121.534 113.291 122.524 112.281 123.914 112.281C124.734 112.281 125.394 112.661 125.794 113.291V112.401ZM124.054 116.521C125.074 116.521 125.794 115.781 125.794 114.731C125.794 113.691 125.074 112.951 124.054 112.951C123.044 112.951 122.324 113.691 122.324 114.731C122.324 115.781 123.044 116.521 124.054 116.521ZM133.215 116.811L133.585 117.361C133.315 117.571 132.975 117.691 132.625 117.691C131.885 117.691 131.365 117.141 131.365 116.371V113.071H130.555V112.401H131.365V110.981H132.115V112.401H133.385V113.071H132.115V116.371C132.115 116.751 132.375 117.021 132.675 117.021C132.905 117.021 133.105 116.931 133.215 116.811ZM137.003 117.691C135.553 117.691 134.323 116.451 134.323 114.981C134.323 113.511 135.553 112.281 137.003 112.281C138.453 112.281 139.673 113.511 139.673 114.981C139.673 116.451 138.453 117.691 137.003 117.691ZM137.003 117.021C138.023 117.021 138.883 116.091 138.883 114.981C138.883 113.881 138.023 112.951 137.003 112.951C135.973 112.951 135.113 113.881 135.113 114.981C135.113 116.091 135.973 117.021 137.003 117.021ZM146.126 117.691C144.676 117.691 143.446 116.451 143.446 114.981C143.446 113.511 144.676 112.281 146.126 112.281C146.826 112.281 147.476 112.571 147.966 113.041L147.446 113.551C147.106 113.181 146.636 112.951 146.126 112.951C145.096 112.951 144.236 113.881 144.236 114.981C144.236 116.091 145.096 117.021 146.126 117.021C146.646 117.021 147.126 116.781 147.476 116.391L147.996 116.901C147.506 117.391 146.846 117.691 146.126 117.691ZM151.396 117.691C149.946 117.691 148.716 116.451 148.716 114.981C148.716 113.511 149.946 112.281 151.396 112.281C152.846 112.281 154.066 113.511 154.066 114.981C154.066 116.451 152.846 117.691 151.396 117.691ZM151.396 117.021C152.416 117.021 153.276 116.091 153.276 114.981C153.276 113.881 152.416 112.951 151.396 112.951C150.366 112.951 149.506 113.881 149.506 114.981C149.506 116.091 150.366 117.021 151.396 117.021ZM160.852 112.281C161.932 112.281 162.692 113.111 162.692 114.281V117.571H161.942V114.381C161.942 113.541 161.452 112.951 160.752 112.951C159.932 112.951 159.352 113.501 159.352 114.281V117.571H158.602V114.381C158.602 113.541 158.112 112.951 157.412 112.951C156.592 112.951 156.012 113.501 156.012 114.281V117.571H155.262V112.401H156.012V113.161C156.272 112.621 156.832 112.281 157.512 112.281C158.292 112.281 158.902 112.711 159.182 113.381C159.392 112.711 160.072 112.281 160.852 112.281ZM166.864 112.281C168.224 112.281 169.244 113.401 169.244 114.981C169.244 116.571 168.224 117.691 166.864 117.691C166.034 117.691 165.374 117.281 164.984 116.601V119.291H164.234V112.401H164.984V113.371C165.374 112.691 166.034 112.281 166.864 112.281ZM166.724 117.021C167.734 117.021 168.454 116.171 168.454 114.981C168.454 113.791 167.734 112.951 166.724 112.951C165.704 112.951 164.984 113.791 164.984 114.981C164.984 116.171 165.704 117.021 166.724 117.021ZM170.498 117.571V110.581H171.248V117.571H170.498ZM175.05 117.021C175.66 117.021 176.36 116.751 176.68 116.401L177.14 116.891C176.69 117.381 175.78 117.691 175.06 117.691C173.68 117.691 172.44 116.561 172.44 114.971C172.44 113.431 173.6 112.281 174.99 112.281C176.55 112.281 177.44 113.461 177.44 115.271H173.21C173.32 116.281 174.03 117.021 175.05 117.021ZM175.02 112.951C174.1 112.951 173.36 113.601 173.22 114.601H176.7C176.6 113.671 176.05 112.951 175.02 112.951ZM180.895 116.811L181.265 117.361C180.995 117.571 180.655 117.691 180.305 117.691C179.565 117.691 179.045 117.141 179.045 116.371V113.071H178.235V112.401H179.045V110.981H179.795V112.401H181.065V113.071H179.795V116.371C179.795 116.751 180.055 117.021 180.355 117.021C180.585 117.021 180.785 116.931 180.895 116.811ZM184.613 117.021C185.223 117.021 185.923 116.751 186.243 116.401L186.703 116.891C186.253 117.381 185.343 117.691 184.623 117.691C183.243 117.691 182.003 116.561 182.003 114.971C182.003 113.431 183.163 112.281 184.553 112.281C186.113 112.281 187.003 113.461 187.003 115.271H182.773C182.883 116.281 183.593 117.021 184.613 117.021ZM184.583 112.951C183.663 112.951 182.923 113.601 182.783 114.601H186.263C186.163 113.671 185.613 112.951 184.583 112.951ZM188.707 113.541C188.397 113.541 188.157 113.291 188.157 112.991C188.157 112.711 188.397 112.461 188.707 112.461C188.997 112.461 189.237 112.711 189.237 112.991C189.237 113.291 188.997 113.541 188.707 113.541ZM188.707 117.691C188.397 117.691 188.157 117.441 188.157 117.141C188.157 116.861 188.397 116.611 188.707 116.611C188.997 116.611 189.237 116.861 189.237 117.141C189.237 117.441 188.997 117.691 188.707 117.691Z" fill="white"/>
<path d="M78.648 151L85.1851 137.446H76.9337V135.297H87.9051V137.034L81.2994 151H78.648ZM109.005 137.446H99.7936V142.017H108.114V144.166H99.7936V151H97.4621V135.297H109.005V137.446ZM116.82 149.263C118.054 149.263 119.494 148.714 120.202 147.983L121.62 149.446C120.568 150.566 118.511 151.274 116.842 151.274C113.551 151.274 110.762 148.691 110.762 145.057C110.762 141.514 113.391 138.909 116.66 138.909C120.271 138.909 122.351 141.651 122.351 145.88H113.048C113.345 147.846 114.785 149.263 116.82 149.263ZM116.751 140.92C114.922 140.92 113.437 142.154 113.071 144.074H120.157C119.905 142.246 118.785 140.92 116.751 140.92ZM129.836 138.909C133.013 138.909 134.773 140.92 134.773 143.846V151H132.556V149.377C131.687 150.611 130.064 151.274 128.624 151.274C126.11 151.274 124.258 149.811 124.258 147.503C124.258 145.149 126.384 143.571 128.99 143.571C130.156 143.571 131.413 143.823 132.556 144.211V143.846C132.556 142.36 131.87 140.783 129.516 140.783C128.35 140.783 127.207 141.24 126.178 141.766L125.356 140.097C127.047 139.251 128.533 138.909 129.836 138.909ZM129.058 149.491C130.521 149.491 132.167 148.76 132.556 147.297V145.72C131.596 145.423 130.498 145.263 129.333 145.263C127.756 145.263 126.43 146.154 126.43 147.434C126.43 148.714 127.573 149.491 129.058 149.491ZM143.478 148.874L144.301 150.429C143.661 150.954 142.793 151.274 141.947 151.274C140.118 151.274 138.838 149.949 138.838 148.051V141.103H137.055V139.183H138.838V135.937H141.055V139.183H143.844V141.103H141.055V147.891C141.055 148.714 141.604 149.309 142.267 149.309C142.77 149.309 143.227 149.126 143.478 148.874ZM154.646 139.183H156.909V151H154.646V149.286C153.938 150.451 152.498 151.274 150.898 151.274C148.292 151.274 146.464 149.377 146.464 146.703V139.183H148.681V146.314C148.681 148.074 149.801 149.309 151.401 149.309C153.046 149.309 154.464 148.234 154.646 146.84V139.183ZM162.471 141.446C163.226 139.891 164.826 138.909 166.86 138.909V140.874C164.414 140.874 162.677 142.223 162.471 144.28V151H160.208V139.183H162.471V141.446ZM174.386 149.263C175.62 149.263 177.06 148.714 177.769 147.983L179.186 149.446C178.135 150.566 176.078 151.274 174.409 151.274C171.118 151.274 168.329 148.691 168.329 145.057C168.329 141.514 170.958 138.909 174.226 138.909C177.838 138.909 179.918 141.651 179.918 145.88H170.615C170.912 147.846 172.352 149.263 174.386 149.263ZM174.318 140.92C172.489 140.92 171.003 142.154 170.638 144.074H177.723C177.472 142.246 176.352 140.92 174.318 140.92ZM186.716 151.274C184.979 151.274 183.082 150.657 181.665 149.514L182.739 147.891C183.996 148.806 185.345 149.331 186.739 149.331C188.065 149.331 188.979 148.714 188.979 147.8C188.979 146.703 187.768 146.36 186.305 145.949C183.585 145.194 182.236 144.417 182.236 142.497C182.214 140.326 184.019 138.909 186.534 138.909C188.065 138.909 189.619 139.434 190.899 140.28L189.894 141.949C188.751 141.24 187.562 140.851 186.534 140.851C185.368 140.851 184.454 141.354 184.454 142.246C184.454 143.16 185.185 143.434 187.174 144.051C189.116 144.623 191.196 145.263 191.196 147.617C191.196 149.857 189.299 151.274 186.716 151.274Z" fill="white"/>
</g>
<rect x="11.4285" y="190.286" width="245" height="45.7143" rx="8.57143" fill="#193048"/>
<path d="M31.4284 211.715C33.0064 211.715 34.2856 210.435 34.2856 208.857C34.2856 207.279 33.0064 206 31.4284 206C29.8505 206 28.5713 207.279 28.5713 208.857C28.5713 210.435 29.8505 211.715 31.4284 211.715Z" fill="white"/>
<path d="M37.1427 217.072C37.1427 218.847 37.1427 220.286 31.4284 220.286C25.7141 220.286 25.7141 218.847 25.7141 217.072C25.7141 215.297 28.2727 213.857 31.4284 213.857C34.5841 213.857 37.1427 215.297 37.1427 217.072Z" fill="white"/>
<path d="M49.4741 216.643V208.792H50.3656V216.643H49.4741ZM56.7579 208.654H57.615V216.643H56.7579V215.534C56.3122 216.312 55.5579 216.78 54.6093 216.78C53.055 216.78 51.8893 215.5 51.8893 213.683C51.8893 211.877 53.055 210.597 54.6093 210.597C55.5579 210.597 56.3122 211.066 56.7579 211.843V208.654ZM54.7693 216.014C55.935 216.014 56.7579 215.043 56.7579 213.683C56.7579 212.323 55.935 211.363 54.7693 211.363C53.615 211.363 52.7922 212.323 52.7922 213.683C52.7922 215.043 53.615 216.014 54.7693 216.014ZM62.0916 216.014C62.7887 216.014 63.5887 215.706 63.9544 215.306L64.4801 215.866C63.9658 216.426 62.9258 216.78 62.103 216.78C60.5258 216.78 59.1087 215.489 59.1087 213.672C59.1087 211.912 60.4344 210.597 62.023 210.597C63.8058 210.597 64.823 211.946 64.823 214.014H59.9887C60.1144 215.169 60.9258 216.014 62.0916 216.014ZM62.0573 211.363C61.0058 211.363 60.1601 212.106 60.0001 213.249H63.9773C63.863 212.186 63.2344 211.363 62.0573 211.363ZM69.037 210.597C70.3399 210.597 71.2541 211.546 71.2541 212.883V216.643H70.397V212.997C70.397 212.037 69.7913 211.363 68.9227 211.363C67.9284 211.363 67.0941 212.06 67.0941 212.883V216.643H66.237V210.734H67.0941V211.683C67.437 211.054 68.2027 210.597 69.037 210.597ZM75.5833 215.774L76.0061 216.403C75.6975 216.643 75.309 216.78 74.909 216.78C74.0633 216.78 73.469 216.152 73.469 215.272V211.5H72.5433V210.734H73.469V209.112H74.3261V210.734H75.7775V211.5H74.3261V215.272C74.3261 215.706 74.6233 216.014 74.9661 216.014C75.229 216.014 75.4575 215.912 75.5833 215.774ZM77.6417 209.66C77.3217 209.66 77.0703 209.397 77.0703 209.089C77.0703 208.792 77.3217 208.529 77.6417 208.529C77.9503 208.529 78.2017 208.792 78.2017 209.089C78.2017 209.397 77.9503 209.66 77.6417 209.66ZM77.2075 216.643V210.734H78.0646V216.643H77.2075ZM82.3801 215.774L82.803 216.403C82.4944 216.643 82.1058 216.78 81.7058 216.78C80.8601 216.78 80.2658 216.152 80.2658 215.272V211.5H79.3401V210.734H80.2658V209.112H81.123V210.734H82.5744V211.5H81.123V215.272C81.123 215.706 81.4201 216.014 81.763 216.014C82.0258 216.014 82.2544 215.912 82.3801 215.774ZM84.8958 218.7C84.5529 218.7 84.2329 218.632 83.9586 218.506L84.1643 217.774C84.37 217.877 84.61 217.923 84.8615 217.923C85.2386 217.923 85.49 217.797 85.7186 217.397L86.0615 216.666L83.49 210.734H84.4386L86.5072 215.649L88.4615 210.734H89.3872L86.69 217.306C86.2786 218.312 85.7072 218.689 84.8958 218.7ZM94.3108 216.643V208.792H95.2022L98.1165 214.266L101.031 208.792H101.922V216.643H101.031V210.712L98.1165 216.186L95.2022 210.712V216.643H94.3108ZM106.602 216.78C104.945 216.78 103.54 215.363 103.54 213.683C103.54 212.003 104.945 210.597 106.602 210.597C108.26 210.597 109.654 212.003 109.654 213.683C109.654 215.363 108.26 216.78 106.602 216.78ZM106.602 216.014C107.768 216.014 108.751 214.952 108.751 213.683C108.751 212.426 107.768 211.363 106.602 211.363C105.425 211.363 104.442 212.426 104.442 213.683C104.442 214.952 105.425 216.014 106.602 216.014ZM113.881 210.597C115.184 210.597 116.098 211.546 116.098 212.883V216.643H115.241V212.997C115.241 212.037 114.635 211.363 113.766 211.363C112.772 211.363 111.938 212.06 111.938 212.883V216.643H111.081V210.734H111.938V211.683C112.281 211.054 113.046 210.597 113.881 210.597ZM118.256 209.66C117.936 209.66 117.684 209.397 117.684 209.089C117.684 208.792 117.936 208.529 118.256 208.529C118.564 208.529 118.816 208.792 118.816 209.089C118.816 209.397 118.564 209.66 118.256 209.66ZM117.821 216.643V210.734H118.678V216.643H117.821ZM122.994 215.774L123.417 216.403C123.108 216.643 122.72 216.78 122.32 216.78C121.474 216.78 120.88 216.152 120.88 215.272V211.5H119.954V210.734H120.88V209.112H121.737V210.734H123.188V211.5H121.737V215.272C121.737 215.706 122.034 216.014 122.377 216.014C122.64 216.014 122.868 215.912 122.994 215.774ZM127.372 216.78C125.715 216.78 124.31 215.363 124.31 213.683C124.31 212.003 125.715 210.597 127.372 210.597C129.03 210.597 130.424 212.003 130.424 213.683C130.424 215.363 129.03 216.78 127.372 216.78ZM127.372 216.014C128.538 216.014 129.521 214.952 129.521 213.683C129.521 212.426 128.538 211.363 127.372 211.363C126.195 211.363 125.212 212.426 125.212 213.683C125.212 214.952 126.195 216.014 127.372 216.014ZM132.777 211.889C133.131 211.1 133.977 210.597 135.062 210.597V211.363C133.725 211.363 132.777 212.186 132.777 213.34V216.643H131.919V210.734H132.777V211.889ZM136.671 209.66C136.351 209.66 136.099 209.397 136.099 209.089C136.099 208.792 136.351 208.529 136.671 208.529C136.979 208.529 137.231 208.792 137.231 209.089C137.231 209.397 136.979 209.66 136.671 209.66ZM136.236 216.643V210.734H137.094V216.643H136.236ZM141.626 210.597C142.929 210.597 143.843 211.546 143.843 212.883V216.643H142.986V212.997C142.986 212.037 142.381 211.363 141.512 211.363C140.518 211.363 139.683 212.06 139.683 212.883V216.643H138.826V210.734H139.683V211.683C140.026 211.054 140.792 210.597 141.626 210.597ZM150.173 210.734H151.03V216.014C151.03 217.534 149.83 218.609 148.127 218.609C147.167 218.609 146.275 218.277 145.738 217.82L146.115 217.146C146.573 217.58 147.281 217.843 148.013 217.843C149.373 217.843 150.173 217.169 150.173 216.014V215.054C149.715 215.774 148.961 216.209 148.024 216.209C146.435 216.209 145.304 215.043 145.304 213.397C145.304 211.752 146.435 210.597 148.024 210.597C148.961 210.597 149.715 211.032 150.173 211.752V210.734ZM148.184 215.443C149.35 215.443 150.173 214.597 150.173 213.397C150.173 212.209 149.35 211.363 148.184 211.363C147.03 211.363 146.207 212.209 146.207 213.397C146.207 214.597 147.03 215.443 148.184 215.443Z" fill="white"/>
<circle cx="160.428" cy="213.143" r="2.14286" fill="#FE2D3E"/>
<rect x="11.4285" y="238.857" width="245" height="45.7143" rx="8.57143" fill="#193048"/>
<g clip-path="url(#clip1_4_1269)">
<path d="M28.7497 261.714C28.7497 262.393 28.7801 263.051 28.8365 263.679H34.0201C34.0765 263.051 34.1069 262.393 34.1069 261.714C34.1069 261.036 34.0765 260.378 34.0197 259.75H28.8372C28.7801 260.378 28.7497 261.036 28.7497 261.714ZM27.7615 259.75C27.7056 260.403 27.6778 261.059 27.6783 261.714C27.6783 262.388 27.7069 263.045 27.7611 263.679H23.6344C23.4765 263.05 23.3926 262.392 23.3926 261.714C23.3926 261.037 23.4765 260.379 23.6344 259.75H27.7615ZM28.9637 258.679H33.8926C33.734 257.598 33.494 256.634 33.1965 255.842C32.9183 255.102 32.6004 254.539 32.2751 254.172C31.949 253.803 31.6611 253.679 31.4283 253.679C31.1954 253.679 30.9076 253.804 30.5812 254.172C30.2558 254.539 29.9379 255.102 29.6597 255.842C29.3622 256.634 29.1222 257.598 28.9633 258.679M35.0951 259.75C35.1497 260.383 35.1783 261.041 35.1783 261.714C35.1783 262.388 35.1497 263.045 35.0954 263.679H39.2222C39.3801 263.05 39.464 262.392 39.464 261.714C39.464 261.037 39.3801 260.379 39.2222 259.75H35.0951ZM38.8712 258.679H34.9751C34.8072 257.469 34.5415 256.375 34.1997 255.465C33.9815 254.884 33.7272 254.364 33.4376 253.932C35.909 254.568 37.9197 256.351 38.8704 258.679M27.8811 258.679H23.9858C24.9361 256.351 26.9472 254.568 29.4186 253.932C29.1294 254.364 28.8747 254.884 28.6565 255.465C28.3147 256.375 28.0494 257.469 27.8815 258.679M27.8804 264.75H23.9858C24.9358 267.077 26.9451 268.859 29.4144 269.496C29.1251 269.064 28.8715 268.544 28.6536 267.964C28.3126 267.053 28.0476 265.96 27.8804 264.75ZM33.1997 267.587C33.4961 266.795 33.7354 265.832 33.894 264.75H28.9626C29.1208 265.832 29.3601 266.795 29.6569 267.587C29.9347 268.328 30.2522 268.89 30.5783 269.257C30.904 269.625 31.1926 269.75 31.4283 269.75C31.664 269.75 31.9526 269.625 32.2783 269.257C32.6044 268.89 32.9219 268.328 33.1997 267.587ZM34.2029 267.963C34.544 267.053 34.809 265.96 34.9761 264.75H38.8708C37.9208 267.077 35.9115 268.859 33.4422 269.496C33.7315 269.064 33.9851 268.543 34.2029 267.963Z" fill="white"/>
</g>
<path d="M51.6799 265.215L48.9941 257.363H49.9999L52.1713 263.717L54.2513 257.363H55.2456L57.3256 263.717L59.497 257.363H60.5027L57.817 265.215H56.937L54.7541 258.529L52.5599 265.215H51.6799ZM63.8326 264.586C64.5298 264.586 65.3298 264.277 65.6955 263.877L66.2212 264.437C65.7069 264.997 64.6669 265.352 63.8441 265.352C62.2669 265.352 60.8498 264.06 60.8498 262.243C60.8498 260.483 62.1755 259.169 63.7641 259.169C65.5469 259.169 66.5641 260.517 66.5641 262.586H61.7298C61.8555 263.74 62.6669 264.586 63.8326 264.586ZM63.7983 259.935C62.7469 259.935 61.9012 260.677 61.7412 261.82H65.7183C65.6041 260.757 64.9755 259.935 63.7983 259.935ZM71.0524 259.169C72.6066 259.169 73.7724 260.449 73.7724 262.255C73.7724 264.072 72.6066 265.352 71.0524 265.352C70.1038 265.352 69.3495 264.883 68.9038 264.106V265.215H68.0466V257.226H68.9038V260.415C69.3495 259.637 70.1038 259.169 71.0524 259.169ZM70.8924 264.586C72.0466 264.586 72.8695 263.615 72.8695 262.255C72.8695 260.895 72.0466 259.935 70.8924 259.935C69.7266 259.935 68.9038 260.895 68.9038 262.255C68.9038 263.615 69.7266 264.586 70.8924 264.586ZM78.0089 265.34C76.7174 265.34 75.7003 264.872 74.9117 264.095L75.4717 263.397C76.1346 264.06 76.946 264.529 78.0432 264.529C79.2546 264.529 79.8717 263.866 79.8717 263.157C79.8717 262.323 79.1289 261.992 77.7574 261.672C76.1803 261.306 75.186 260.815 75.186 259.455C75.186 258.197 76.306 257.215 77.8146 257.215C78.9803 257.215 79.8489 257.672 80.5689 258.335L80.0203 259.032C79.3689 258.403 78.5917 258.026 77.7689 258.026C76.7974 258.026 76.0889 258.666 76.0889 259.386C76.0889 260.197 76.866 260.483 78.2032 260.803C79.7003 261.157 80.7746 261.695 80.7746 263.077C80.7746 264.323 79.8374 265.34 78.0089 265.34ZM85.075 259.169C86.3778 259.169 87.2921 260.117 87.2921 261.455V265.215H86.435V261.569C86.435 260.609 85.8292 259.935 84.9607 259.935C83.9664 259.935 83.1321 260.632 83.1321 261.455V265.215H82.275V257.226H83.1321V260.255C83.475 259.626 84.2407 259.169 85.075 259.169ZM89.4498 258.232C89.1298 258.232 88.8783 257.969 88.8783 257.66C88.8783 257.363 89.1298 257.1 89.4498 257.1C89.7583 257.1 90.0098 257.363 90.0098 257.66C90.0098 257.969 89.7583 258.232 89.4498 258.232ZM89.0155 265.215V259.306H89.8726V265.215H89.0155ZM94.2567 264.586C94.9539 264.586 95.7539 264.277 96.1196 263.877L96.6453 264.437C96.131 264.997 95.091 265.352 94.2682 265.352C92.691 265.352 91.2739 264.06 91.2739 262.243C91.2739 260.483 92.5996 259.169 94.1882 259.169C95.971 259.169 96.9882 260.517 96.9882 262.586H92.1539C92.2796 263.74 93.091 264.586 94.2567 264.586ZM94.2225 259.935C93.171 259.935 92.3253 260.677 92.1653 261.82H96.1425C96.0282 260.757 95.3996 259.935 94.2225 259.935ZM98.3908 265.215V257.226H99.2479V265.215H98.3908ZM105.597 257.226H106.454V265.215H105.597V264.106C105.151 264.883 104.397 265.352 103.449 265.352C101.894 265.352 100.729 264.072 100.729 262.255C100.729 260.449 101.894 259.169 103.449 259.169C104.397 259.169 105.151 259.637 105.597 260.415V257.226ZM103.609 264.586C104.774 264.586 105.597 263.615 105.597 262.255C105.597 260.895 104.774 259.935 103.609 259.935C102.454 259.935 101.631 260.895 101.631 262.255C101.631 263.615 102.454 264.586 103.609 264.586Z" fill="white"/>
<circle cx="115.428" cy="261.714" r="2.14286" fill="#FE2D3E"/>
<rect x="11.4285" y="287.429" width="245" height="45.7143" rx="8.57143" fill="#193048"/>
<g clip-path="url(#clip2_4_1269)">
<path fill-rule="evenodd" clip-rule="evenodd" d="M30.7794 302.619C31.181 302.373 31.6855 302.379 32.081 302.629C32.959 303.186 33.799 303.677 34.6096 303.988C35.4178 304.298 36.15 304.411 36.8272 304.261C37.4468 304.125 38.3051 304.433 38.4312 305.283C38.61 306.497 38.8231 308.548 38.8231 310.297C38.8231 313.025 37.2496 315.019 35.61 316.299C34.8683 316.877 34.0586 317.361 33.199 317.742C32.8759 317.885 32.5442 318.007 32.2059 318.109C31.954 318.189 31.6925 318.235 31.4284 318.245C31.2043 318.245 30.9288 318.189 30.6508 318.109C30.3121 318.007 29.9801 317.885 29.6565 317.742C28.7974 317.361 27.9881 316.877 27.2468 316.299C25.6059 315.019 24.0337 313.025 24.0337 310.298C24.0337 308.55 24.2468 306.499 24.4255 305.284C24.5517 304.433 25.41 304.127 26.0296 304.264C26.6982 304.411 27.4121 304.301 28.2129 303.988C29.021 303.675 29.8635 303.181 30.7806 302.621L30.7794 302.619ZM27.3986 309.581C28.4675 308.512 29.9173 307.911 31.429 307.911C32.9407 307.911 34.3905 308.512 35.4594 309.581C35.5305 309.652 35.6149 309.708 35.7077 309.746C35.8006 309.785 35.9001 309.805 36.0006 309.805C36.1011 309.805 36.2007 309.785 36.2935 309.746C36.3864 309.708 36.4708 309.652 36.5419 309.581C36.6129 309.51 36.6693 309.425 36.7078 309.332C36.7462 309.239 36.766 309.14 36.766 309.039C36.766 308.939 36.7462 308.839 36.7078 308.746C36.6693 308.654 36.6129 308.569 36.5419 308.498C35.1859 307.142 33.347 306.381 31.4296 306.381C29.5122 306.381 27.6733 307.142 26.3174 308.498C26.1807 308.643 26.1059 308.835 26.1087 309.034C26.1115 309.233 26.1918 309.423 26.3325 309.564C26.4731 309.705 26.6632 309.786 26.8622 309.789C27.0613 309.792 27.2537 309.717 27.3986 309.581ZM33.2455 311.939C32.7633 311.457 32.1095 311.186 31.4278 311.186C30.746 311.186 30.0922 311.457 29.61 311.939C29.4652 312.076 29.2729 312.15 29.0739 312.148C28.8748 312.145 28.6847 312.065 28.5439 311.924C28.403 311.783 28.3225 311.593 28.3195 311.394C28.3165 311.195 28.3911 311.003 28.5276 310.858C29.2968 310.089 30.34 309.657 31.4278 309.657C32.5155 309.657 33.5587 310.089 34.328 310.858C34.4024 310.928 34.462 311.013 34.5033 311.106C34.5445 311.2 34.5665 311.301 34.5679 311.403C34.5694 311.506 34.5502 311.607 34.5117 311.702C34.4732 311.797 34.416 311.883 34.3435 311.956C34.2711 312.028 34.1848 312.085 34.0899 312.124C33.995 312.162 33.8934 312.181 33.791 312.179C33.6886 312.178 33.5876 312.156 33.4939 312.115C33.4002 312.073 33.3157 312.013 33.2455 311.939ZM32.1925 313.757C32.1925 313.554 32.1118 313.36 31.9683 313.216C31.8248 313.073 31.6301 312.992 31.4272 312.992C31.2242 312.992 31.0295 313.073 30.886 313.216C30.7425 313.36 30.6619 313.554 30.6619 313.757V314.216C30.6619 314.419 30.7425 314.614 30.886 314.758C31.0295 314.901 31.2242 314.982 31.4272 314.982C31.6301 314.982 31.8248 314.901 31.9683 314.758C32.1118 314.614 32.1925 314.419 32.1925 314.216V313.757Z" fill="white"/>
</g>
<path d="M55.8627 305.934H56.8341L53.3713 313.786H52.3999L48.937 305.934H49.9084L52.8913 312.689L55.8627 305.934ZM58.1014 313.786V305.934H61.29C62.9128 305.934 64.1814 306.974 64.1814 308.449C64.1814 309.923 62.9128 310.963 61.29 310.963H58.9928V313.786H58.1014ZM58.9928 310.117H61.13C62.41 310.117 63.2785 309.5 63.2785 308.449C63.2785 307.397 62.41 306.78 61.13 306.78H58.9928V310.117ZM65.6277 313.786V305.934H66.5191L71.3877 312.323V305.934H72.2791V313.786H71.3877L66.5191 307.397V313.786H65.6277Z" fill="white"/>
<circle cx="81.4283" cy="310.286" r="2.14286" fill="#FE2D3E"/>
<rect x="11.4285" y="336" width="245" height="45.7143" rx="8.57143" fill="#193048"/>
<g clip-path="url(#clip3_4_1269)">
<path d="M27.7654 351.043C27.4707 351.113 27.1828 351.28 26.9417 351.525C26.6839 351.783 26.5634 351.994 26.473 352.348C26.406 352.603 26.406 352.74 26.406 358.857C26.406 364.975 26.406 365.112 26.473 365.366C26.5634 365.721 26.6839 365.932 26.9417 366.19C27.1895 366.438 27.4707 366.602 27.7821 366.675C28.1036 366.749 34.7531 366.749 35.0745 366.675C35.7308 366.518 36.2598 365.972 36.4004 365.303C36.4741 364.951 36.4741 352.764 36.4004 352.412C36.3268 352.061 36.1727 351.776 35.9183 351.525C35.5265 351.136 35.1381 350.989 34.4919 350.989H34.1236L33.6214 351.997C33.2196 352.807 33.0991 353.018 33.0187 353.068C32.925 353.129 32.8212 353.132 31.4283 353.132C30.0355 353.132 29.9317 353.129 29.8379 353.068C29.7576 353.018 29.637 352.807 29.2352 351.997L28.733 350.989L28.348 350.992C28.137 350.992 27.8759 351.016 27.7654 351.043ZM31.8469 355.717C32.0812 355.767 32.4294 355.954 32.6136 356.132C32.9752 356.477 33.1661 356.912 33.1928 357.458L33.2129 357.786H33.3669C33.5913 357.786 33.7587 357.843 33.839 357.943C33.906 358.027 33.906 358.067 33.906 359.929C33.906 361.79 33.906 361.831 33.839 361.914C33.7989 361.965 33.7118 362.018 33.6448 362.038C33.4741 362.085 29.3826 362.085 29.2118 362.038C29.1448 362.018 29.0578 361.965 29.0176 361.914C28.9506 361.831 28.9506 361.79 28.9506 359.929C28.9506 358.067 28.9506 358.027 29.0176 357.943C29.098 357.843 29.2654 357.786 29.4897 357.786H29.6437L29.6638 357.458C29.6839 357.063 29.7743 356.765 29.9551 356.487C30.2665 356.001 30.7319 355.72 31.3111 355.667C31.4451 355.653 31.6393 355.673 31.8469 355.717ZM32.2955 364.63C32.4864 364.73 32.5232 364.988 32.3692 365.159L32.2721 365.269H31.4283H30.5846L30.4875 365.159C30.3301 364.981 30.3669 364.734 30.5745 364.623C30.6817 364.563 32.1783 364.569 32.2955 364.63Z" fill="white"/>
<path d="M31.1505 356.38C30.8156 356.463 30.5377 356.704 30.4239 357.002C30.3737 357.136 30.3569 357.267 30.3569 357.485V357.786H31.4284H32.4998V357.485C32.4998 356.972 32.3123 356.641 31.9105 356.457C31.7096 356.366 31.3547 356.329 31.1505 356.38Z" fill="white"/>
<path d="M29.6204 359.929V361.369H31.4284H33.2364V359.929V358.489H31.4284H29.6204V359.929ZM31.6728 359.36C31.7632 359.46 31.7632 359.467 31.7632 359.929C31.7632 360.394 31.7632 360.398 31.6695 360.501C31.5891 360.589 31.5489 360.609 31.4284 360.609C31.3079 360.609 31.2677 360.589 31.1873 360.501C31.0936 360.398 31.0936 360.394 31.0936 359.932C31.0936 359.51 31.1003 359.46 31.1639 359.38C31.3079 359.199 31.5155 359.189 31.6728 359.36Z" fill="white"/>
<path d="M29.4863 351.006C29.4863 351.016 29.6437 351.341 29.8379 351.726L30.1895 352.429H31.4283H32.6671L33.0187 351.726C33.2129 351.341 33.3703 351.016 33.3703 351.006C33.3703 350.996 32.4964 350.989 31.4283 350.989C30.3602 350.989 29.4863 350.996 29.4863 351.006Z" fill="white"/>
</g>
<path d="M49.6456 362.357V354.506H52.297C54.7884 354.506 56.5484 356.129 56.5484 358.426C56.5484 360.723 54.7884 362.357 52.297 362.357H49.6456ZM50.537 361.546H52.297C54.2627 361.546 55.6456 360.255 55.6456 358.426C55.6456 356.609 54.2627 355.317 52.297 355.317H50.537V361.546ZM60.8081 361.729C61.5052 361.729 62.3052 361.42 62.6709 361.02L63.1966 361.58C62.6824 362.14 61.6424 362.495 60.8195 362.495C59.2424 362.495 57.8252 361.203 57.8252 359.386C57.8252 357.626 59.1509 356.312 60.7395 356.312C62.5224 356.312 63.5395 357.66 63.5395 359.729H58.7052C58.8309 360.883 59.6424 361.729 60.8081 361.729ZM60.7738 357.077C59.7224 357.077 58.8766 357.82 58.7166 358.963H62.6938C62.5795 357.9 61.9509 357.077 60.7738 357.077ZM66.8964 362.357L64.3821 356.449H65.3421L67.3078 361.352L69.2392 356.449H70.1992L67.7192 362.357H66.8964ZM71.8047 355.375C71.4847 355.375 71.2333 355.112 71.2333 354.803C71.2333 354.506 71.4847 354.243 71.8047 354.243C72.1133 354.243 72.3647 354.506 72.3647 354.803C72.3647 355.112 72.1133 355.375 71.8047 355.375ZM71.3704 362.357V356.449H72.2275V362.357H71.3704ZM76.6916 362.495C75.0345 362.495 73.6288 361.077 73.6288 359.397C73.6288 357.717 75.0345 356.312 76.6916 356.312C77.4916 356.312 78.2345 356.643 78.7945 357.18L78.2002 357.763C77.8116 357.34 77.2745 357.077 76.6916 357.077C75.5145 357.077 74.5316 358.14 74.5316 359.397C74.5316 360.666 75.5145 361.729 76.6916 361.729C77.2859 361.729 77.8345 361.455 78.2345 361.009L78.8288 361.592C78.2688 362.152 77.5145 362.495 76.6916 362.495ZM82.8058 361.729C83.503 361.729 84.303 361.42 84.6687 361.02L85.1944 361.58C84.6801 362.14 83.6401 362.495 82.8173 362.495C81.2401 362.495 79.823 361.203 79.823 359.386C79.823 357.626 81.1487 356.312 82.7373 356.312C84.5201 356.312 85.5373 357.66 85.5373 359.729H80.703C80.8287 360.883 81.6401 361.729 82.8058 361.729ZM82.7716 357.077C81.7201 357.077 80.8744 357.82 80.7144 358.963H84.6916C84.5773 357.9 83.9487 357.077 82.7716 357.077ZM93.0089 362.483C91.7174 362.483 90.7003 362.015 89.9117 361.237L90.4717 360.54C91.1346 361.203 91.946 361.672 93.0432 361.672C94.2546 361.672 94.8717 361.009 94.8717 360.3C94.8717 359.466 94.1289 359.135 92.7574 358.815C91.1803 358.449 90.186 357.957 90.186 356.597C90.186 355.34 91.306 354.357 92.8146 354.357C93.9803 354.357 94.8489 354.815 95.5689 355.477L95.0203 356.175C94.3689 355.546 93.5917 355.169 92.7689 355.169C91.7974 355.169 91.0889 355.809 91.0889 356.529C91.0889 357.34 91.866 357.626 93.2032 357.946C94.7003 358.3 95.7746 358.837 95.7746 360.22C95.7746 361.466 94.8374 362.483 93.0089 362.483ZM99.9264 361.729C100.624 361.729 101.424 361.42 101.789 361.02L102.315 361.58C101.801 362.14 100.761 362.495 99.9378 362.495C98.3607 362.495 96.9435 361.203 96.9435 359.386C96.9435 357.626 98.2692 356.312 99.8578 356.312C101.641 356.312 102.658 357.66 102.658 359.729H97.8235C97.9492 360.883 98.7607 361.729 99.9264 361.729ZM99.8921 357.077C98.8407 357.077 97.995 357.82 97.835 358.963H101.812C101.698 357.9 101.069 357.077 99.8921 357.077ZM106.803 362.495C105.146 362.495 103.74 361.077 103.74 359.397C103.74 357.717 105.146 356.312 106.803 356.312C107.603 356.312 108.346 356.643 108.906 357.18L108.312 357.763C107.923 357.34 107.386 357.077 106.803 357.077C105.626 357.077 104.643 358.14 104.643 359.397C104.643 360.666 105.626 361.729 106.803 361.729C107.398 361.729 107.946 361.455 108.346 361.009L108.94 361.592C108.38 362.152 107.626 362.495 106.803 362.495ZM114.415 356.449H115.272V362.357H114.415V361.409C114.072 362.037 113.306 362.495 112.472 362.495C111.169 362.495 110.255 361.546 110.255 360.209V356.449H111.112V360.095C111.112 361.055 111.717 361.729 112.586 361.729C113.58 361.729 114.415 361.032 114.415 360.209V356.449ZM117.955 357.603C118.309 356.815 119.155 356.312 120.241 356.312V357.077C118.904 357.077 117.955 357.9 117.955 359.055V362.357H117.098V356.449H117.955V357.603ZM121.849 355.375C121.529 355.375 121.278 355.112 121.278 354.803C121.278 354.506 121.529 354.243 121.849 354.243C122.158 354.243 122.409 354.506 122.409 354.803C122.409 355.112 122.158 355.375 121.849 355.375ZM121.415 362.357V356.449H122.272V362.357H121.415ZM126.588 361.489L127.011 362.117C126.702 362.357 126.313 362.495 125.913 362.495C125.068 362.495 124.473 361.866 124.473 360.986V357.215H123.548V356.449H124.473V354.826H125.331V356.449H126.782V357.215H125.331V360.986C125.331 361.42 125.628 361.729 125.971 361.729C126.233 361.729 126.462 361.626 126.588 361.489ZM129.103 364.415C128.76 364.415 128.44 364.346 128.166 364.22L128.372 363.489C128.578 363.592 128.818 363.637 129.069 363.637C129.446 363.637 129.698 363.512 129.926 363.112L130.269 362.38L127.698 356.449H128.646L130.715 361.363L132.669 356.449H133.595L130.898 363.02C130.486 364.026 129.915 364.403 129.103 364.415Z" fill="white"/>
<circle cx="142.428" cy="358.857" r="2.14286" fill="#FE2D3E"/>
</g>
<defs>
<filter id="filter0_ii_4_1269" x="11.4285" y="94.2856" width="245" height="78.8572" filterUnits="userSpaceOnUse" color-interpolation-filters="sRGB">
<feFlood flood-opacity="0" result="BackgroundImageFix"/>
<feBlend mode="normal" in="SourceGraphic" in2="BackgroundImageFix" result="shape"/>
<feColorMatrix in="SourceAlpha" type="matrix" values="0 0 0 0 0 0 0 0 0 0 0 0 0 0 0 0 0 0 127 0" result="hardAlpha"/>
<feMorphology radius="0.714286" operator="erode" in="SourceAlpha" result="effect1_innerShadow_4_1269"/>
<feOffset/>
<feGaussianBlur stdDeviation="21.4286"/>
<feComposite in2="hardAlpha" operator="arithmetic" k2="-1" k3="1"/>
<feColorMatrix type="matrix" values="0 0 0 0 0.706049 0 0 0 0 0.818221 0 0 0 0 0.898344 0 0 0 0.16 0"/>
<feBlend mode="normal" in2="shape" result="effect1_innerShadow_4_1269"/>
<feColorMatrix in="SourceAlpha" type="matrix" values="0 0 0 0 0 0 0 0 0 0 0 0 0 0 0 0 0 0 127 0" result="hardAlpha"/>
<feOffset/>
<feGaussianBlur stdDeviation="5.35714"/>
<feComposite in2="hardAlpha" operator="arithmetic" k2="-1" k3="1"/>
<feColorMatrix type="matrix" values="0 0 0 0 1 0 0 0 0 1 0 0 0 0 1 0 0 0 0.08 0"/>
<feBlend mode="normal" in2="effect1_innerShadow_4_1269" result="effect2_innerShadow_4_1269"/>
</filter>
<linearGradient id="paint0_linear_4_1269" x1="208.571" y1="180" x2="7.33267e-06" y2="224.286" gradientUnits="userSpaceOnUse">
<stop stop-color="#000205"/>
<stop offset="1" stop-color="#07243D"/>
</linearGradient>
<radialGradient id="paint1_radial_4_1269" cx="0" cy="0" r="1" gradientUnits="userSpaceOnUse" gradientTransform="translate(214.53 182.512) rotate(180) scale(464.435 72.735)">
<stop stop-color="#EF0C1E" stop-opacity="0.76"/>
<stop offset="1" stop-color="#6A0810" stop-opacity="0"/>
</radialGradient>
<clipPath id="clip0_4_1269">
<rect width="267.857" height="580" rx="22.8571" fill="white"/>
</clipPath>
<clipPath id="clip1_4_1269">
<rect width="17.1429" height="17.1429" fill="white" transform="translate(22.8569 253.143)"/>
</clipPath>
<clipPath id="clip2_4_1269">
<rect width="17.1429" height="17.1429" fill="white" transform="translate(22.8569 301.714)"/>
</clipPath>
<clipPath id="clip3_4_1269">
<rect width="17.1429" height="17.1429" fill="white" transform="translate(22.8569 350.286)"/>
</clipPath>
</defs>
</svg>
