<svg width="200" height="200" viewBox="0 0 200 200" fill="none" xmlns="http://www.w3.org/2000/svg">
<path d="M54.6816 24.6785C54.0454 25.0517 53.2326 25.8321 52.8438 26.4428C52.1723 27.5285 52.137 28.2071 52.137 48.8357V70.1428H68.8539C78.0075 70.1428 86.4543 70.2785 87.6206 70.4821C89.8472 70.8214 92.0737 71.7714 93.4521 72.9589C93.9115 73.366 96.1734 75.9446 98.506 78.6928L102.712 83.7142H125.649H148.621V73.3321C148.621 65.1553 148.515 62.9839 148.197 63.1196C140.634 66.1392 122.291 73.1624 122.185 73.0607C122.115 72.9589 125.472 68.8535 129.678 63.9339C133.884 58.9803 137.312 54.8071 137.312 54.6374C137.312 54.4678 135.969 52.5678 134.308 50.4642C132.647 48.3267 131.41 46.4946 131.551 46.3928C131.728 46.2571 135.615 43.6785 140.281 40.6249L148.692 35.0946L148.551 31.4982C148.409 27.4267 147.879 26.1035 145.794 24.7803L144.628 23.9999H100.238C56.5547 23.9999 55.8126 23.9999 54.6816 24.6785ZM127.381 31.1589C129.289 31.8035 129.784 33.7035 128.406 35.0946L127.663 35.8749H97.8345C68.5004 35.8749 68.041 35.8749 67.3341 35.1964C66.1325 34.0428 66.5919 31.7357 68.147 31.1249C69.3486 30.6839 126.002 30.6839 127.381 31.1589ZM121.09 45.341C121.973 46.3589 121.938 47.9196 121.054 48.7678C120.348 49.4464 119.888 49.4464 94.1943 49.4464C68.5004 49.4464 68.041 49.4464 67.3341 48.7678C66.1325 47.6142 66.5919 45.3071 68.147 44.6964C68.5711 44.5267 80.2341 44.4249 94.6537 44.4589L120.418 44.5267L121.09 45.341ZM116.071 58.3017C117.98 58.9464 118.474 60.8464 117.096 62.2374L116.354 63.0178H92.1797C68.5004 63.0178 68.041 63.0178 67.3341 62.3392C66.1325 61.1857 66.5919 58.8785 68.147 58.2678C69.3486 57.8267 114.693 57.8607 116.071 58.3017Z" fill="white" fill-opacity="0.24"/>
<path d="M40.5446 76.25C39.9085 76.6232 39.0956 77.4036 38.7068 78.0143C38 79.1339 38 79.8464 38 125.786C38 171.725 38 172.437 38.7068 173.557C39.0956 174.168 39.9085 174.948 40.5446 175.321C41.7109 176 42.4531 176 100.202 176C157.952 176 158.694 176 159.86 175.321C160.496 174.948 161.309 174.168 161.698 173.557C162.405 172.471 162.405 171.759 162.405 132.571C162.405 93.3839 162.405 92.6714 161.698 91.5857C161.309 90.975 160.496 90.1946 159.86 89.8214C158.729 89.1768 157.987 89.1429 131.127 89.1429C113.385 89.1429 102.994 89.0071 101.969 88.7696C99.955 88.3286 99.5662 87.9893 94.4769 81.9161C92.1443 79.1339 89.7411 76.5893 89.1403 76.2161C88.0446 75.6054 87.0904 75.5714 64.8601 75.5714C42.3824 75.5714 41.6756 75.6054 40.5446 76.25ZM106.741 98.575C113.915 101.12 119.11 107.566 119.57 114.623C119.711 116.93 119.641 117.304 118.969 117.948C118.05 118.83 116.318 118.864 115.435 118.016C114.763 117.371 114.622 116.862 114.163 113.571C113.668 109.873 110.346 105.734 106.387 103.868C104.408 102.952 103.984 102.884 100.202 102.884C96.4208 102.884 95.9967 102.952 94.0175 103.868C92.8512 104.445 91.0841 105.666 90.0945 106.582C89.1403 107.532 87.8679 109.229 87.2671 110.348L86.2422 112.384L86.1362 119.746L86.0301 127.143H102.747C111.936 127.143 120.1 127.312 120.842 127.482C122.574 127.855 123.846 128.737 124.765 130.23C125.437 131.35 125.472 131.995 125.472 146.143C125.472 160.291 125.437 160.936 124.765 162.055C123.846 163.548 122.574 164.43 120.842 164.804C119.04 165.211 81.365 165.211 79.5625 164.804C77.8307 164.43 76.5584 163.548 75.6395 162.055C74.968 160.936 74.9327 160.291 74.9327 146.143C74.9327 131.859 74.968 131.35 75.6749 130.196C76.4877 128.805 78.3962 127.482 79.5272 127.482C80.3047 127.482 80.3047 127.414 80.5167 120.425C80.6581 116.014 80.9055 112.757 81.2236 111.705C83.1674 105.021 88.3627 100 95.2545 98.1C97.7638 97.3875 104.125 97.6589 106.741 98.575Z" fill="white" fill-opacity="0.24"/>
<path d="M97.0923 141.393C95.3958 142.411 94.5476 143.937 94.5476 146.143C94.5476 149.536 96.6681 151.571 100.202 151.571C103.737 151.571 105.857 149.536 105.857 146.143C105.857 143.937 105.009 142.411 103.312 141.393C101.722 140.477 98.6827 140.477 97.0923 141.393Z" fill="white" fill-opacity="0.24"/>
</svg>
