<svg width="200" height="200" viewBox="0 0 200 200" fill="none" xmlns="http://www.w3.org/2000/svg">
<path d="M91.55 25.9221C81.4153 32.7368 68.6245 37.2451 55.659 38.643C48.3551 39.4118 34.1664 38.5381 29.3087 37.0004C28.7146 36.8257 28.6797 38.2935 28.6797 64.5739V92.2872L31.4056 92.7065C36.6826 93.5453 41.9946 96.9352 44.9302 101.339L46.1883 103.261H57.022H67.8207V96.9701V90.6796H94.5555H121.29V111.368C121.29 125.277 121.15 132.547 120.906 133.49C120.312 135.622 117.656 138.033 115.314 138.557C113.951 138.837 107.696 138.907 93.3323 138.837L73.2376 138.732L71.5601 137.754C70.6515 137.229 69.4633 136.111 68.939 135.342C67.9955 133.909 67.9955 133.805 67.8906 127.479L67.7858 121.084H56.9871H46.2233L45.1049 122.831C42.7635 126.501 37.9058 130.135 33.9917 131.184C33.1879 131.428 32.5239 131.743 32.5239 131.952C32.5239 132.581 34.5508 136.286 36.6127 139.431C43.2178 149.496 53.6321 158.652 66.6325 165.956C76.6974 171.618 91.6898 176.72 95.8485 175.916C102.384 174.728 109.932 172.072 117.621 168.263C128.629 162.846 135.199 158.233 143.307 150.09C149.563 143.835 152.533 139.885 155.504 133.84C159.802 125.173 160.082 123.181 160.082 103.086V87.2897L157.321 87.0451C142.224 85.7869 130.097 74.0097 128.245 58.7726C127.581 53.2509 128.594 47.2051 131.11 41.7882C131.879 40.1806 132.438 38.7827 132.369 38.7478C132.299 38.6779 130.411 38.2935 128.14 37.9091C117.097 36.0219 106.927 32.1078 98.1201 26.3764L94.4506 24L91.55 25.9221ZM99.8325 60.6598C104.131 61.9878 108.395 65.6573 110.491 69.7811C112.169 73.0661 112.553 75.2328 112.553 80.9642V86.1364H109.094H105.634L105.494 80.7895C105.319 74.6038 104.9 73.2758 102.244 70.4451C100.007 68.0337 97.7706 67.1251 94.206 67.1251C90.5715 67.1251 88.3698 68.0337 86.0283 70.6198C83.9315 72.9263 83.2325 74.8484 82.9529 79.0421L82.7433 82.2922H79.3184H75.8586V79.0421C75.8586 73.7301 77.3963 69.5015 80.5765 65.9718C85.539 60.4501 92.7033 58.4581 99.8325 60.6598Z" fill="white" fill-opacity="0.24"/>
<path d="M154.49 27.914C143.307 30.2904 134.85 38.7127 132.613 49.7561C131.844 53.7052 132.089 59.786 133.172 63.2458C136.178 72.7864 143.447 79.8108 152.953 82.3271C156.832 83.3405 163.017 83.3405 166.897 82.3271C176.263 79.8458 183.182 73.4155 186.397 64.1894C187.341 61.4984 187.481 60.5898 187.62 56.3961C187.76 52.4121 187.655 51.189 187.026 48.7077C184.58 38.8525 176.892 30.9544 167.246 28.2984C164.345 27.5296 157.391 27.3199 154.49 27.914ZM167.246 40.8795C169.937 41.6134 174.795 43.885 175.773 44.8635C176.787 45.877 176.717 47.205 175.633 47.9039C174.795 48.4631 174.655 48.4281 171.51 46.8555C167.316 44.7586 164.625 44.0946 160.082 44.0946C155.504 44.0597 152.359 44.7936 148.34 46.8555C145.788 48.1485 145.264 48.3233 144.53 47.9738C143.552 47.5195 143.167 46.6108 143.482 45.5974C143.901 44.2694 149.458 41.6483 154.316 40.4951C157.041 39.866 164.345 40.0757 167.246 40.8795ZM165.673 49.7561C166.932 50.1405 168.819 50.9793 169.867 51.6083C171.475 52.5868 171.824 52.9363 171.894 53.8799C171.999 54.7536 171.824 55.1031 171.09 55.5923C170.252 56.1515 170.147 56.1165 167.281 54.6837C164.59 53.3207 164.066 53.181 161.06 53.0062C157.286 52.8315 154.875 53.3557 151.625 55.138C149.737 56.1864 149.633 56.1864 148.759 55.6273C147.466 54.7536 147.536 53.2159 148.864 52.2374C153.407 49.0222 160.152 48.0087 165.673 49.7561ZM164.765 58.8774C165.708 59.3666 166.792 60.1704 167.141 60.6597C167.7 61.4285 167.735 61.6732 167.386 62.477C166.757 63.9098 165.743 63.9447 163.437 62.7565C160.746 61.3237 159.103 61.3237 156.308 62.7565C154.246 63.8399 154.141 63.8399 153.267 63.2807C152.009 62.442 152.079 60.9043 153.407 59.9607C155.783 58.2833 157.321 57.794 160.257 57.8988C162.458 57.9687 163.437 58.2134 164.765 58.8774Z" fill="white" fill-opacity="0.24"/>
<path d="M23.6122 97.2147C19.3487 98.7524 16.1335 101.653 14.2463 105.637C13.3028 107.664 13.128 108.433 13.0232 111.473C12.8135 116.75 14.0017 119.861 17.5663 123.46C20.9562 126.885 26.0586 128.528 30.9162 127.759C35.9836 126.955 40.5617 123.635 42.5537 119.336L43.5322 117.24H60.7613H77.9554V119.791C77.9554 121.293 78.1301 122.517 78.3748 122.761C78.6543 123.041 79.9823 123.181 82.0442 123.181C85.0497 123.181 85.2943 123.146 85.2943 122.482C85.2943 122.097 85.7486 121.293 86.3078 120.664C87.1815 119.686 87.5659 119.511 88.9289 119.511C90.187 119.511 90.7112 119.721 91.5499 120.525C92.1091 121.084 92.6333 121.853 92.7032 122.272C92.808 122.936 93.0527 123.006 95.9882 123.111C100.077 123.25 100.322 123.041 100.322 119.581C100.322 117.1 100.357 117.065 101.44 116.541C104.865 114.933 105.005 109.936 101.685 107.979C100.531 107.315 99.7625 107.28 72.0143 107.175L43.5322 107.105L42.379 104.868C40.9112 102.003 38.0805 99.3465 35.075 97.9137C32.9432 96.9351 32.3141 96.7953 29.0291 96.7255C26.1983 96.6206 24.9752 96.7604 23.6122 97.2147ZM31.755 105.672C34.8653 107.28 36.4379 110.669 35.6341 113.954C35.04 116.296 32.6287 118.707 30.2522 119.301C27.0021 120.105 23.5773 118.498 22.0047 115.387C20.9213 113.29 21.1659 110.075 22.5638 108.083C24.5908 105.218 28.7495 104.134 31.755 105.672Z" fill="white" fill-opacity="0.24"/>
</svg>
