<svg width="200" height="200" viewBox="0 0 200 200" fill="none" xmlns="http://www.w3.org/2000/svg">
<path d="M27.0343 24.1628C24.7522 24.8676 23.5104 27.2504 24.1817 29.7003C24.4837 30.8749 33.9142 40.4396 96.7391 103.265C160.537 167.063 169.129 175.52 170.337 175.822C173.861 176.762 176.747 173.842 175.807 170.318C175.505 169.144 166.108 159.612 103.753 97.2237C64.3198 57.7567 31.5985 25.2032 31.028 24.8676C29.7191 24.0621 28.2425 23.7937 27.0343 24.1628Z" fill="white" fill-opacity="0.24"/>
<path d="M53.5132 35.5733L57.8761 39.9362H61.6684C65.8634 39.9362 66.9038 39.6006 67.9442 38.0232C68.7832 36.7815 68.7832 34.3651 67.9442 33.1234C66.7696 31.3111 66.199 31.2105 57.3056 31.2105H49.1504L53.5132 35.5733Z" fill="white" fill-opacity="0.24"/>
<path d="M133.521 31.7138C130.669 33.2576 130.702 37.9561 133.588 39.4663C134.36 39.8354 136.81 39.9361 147.315 39.9361H160.067V52.6891C160.067 66.583 160.101 66.7173 161.947 67.959C162.484 68.2946 163.491 68.5295 164.43 68.5295C165.37 68.5295 166.377 68.2946 166.914 67.959C168.793 66.7173 168.793 66.818 168.793 49.8364C168.793 32.6535 168.827 32.9891 166.78 31.7474C165.941 31.2776 164.095 31.2104 150.1 31.2104C137.213 31.244 134.226 31.3111 133.521 31.7138Z" fill="white" fill-opacity="0.24"/>
<path d="M31.1958 57.3204C31.1958 66.1803 31.2965 66.7844 33.0752 67.959C34.2498 68.7309 36.8675 68.7309 38.0421 67.959C39.5859 66.9187 39.9215 65.8447 39.9215 61.6833V57.8909L35.5586 53.5281L31.1958 49.1653V57.3204Z" fill="white" fill-opacity="0.24"/>
<path d="M95.7996 60.643C91.7052 60.9786 82.8788 62.9586 82.1405 63.697C82.0063 63.8312 85.0602 67.1201 88.9197 70.9796L95.9674 78.0272L99.5919 78.0608C106.337 78.1279 110.835 79.9402 115.432 84.5715C120.064 89.1693 121.943 93.8006 121.876 100.345V103.869L131.474 113.501C136.777 118.837 141.24 123.166 141.408 123.166C142.113 123.166 148.489 117.628 153.188 112.93C158.557 107.594 164.43 100.848 164.43 100.009C164.43 99.1702 158.859 92.7267 153.356 87.2563C134.528 68.4625 114.224 59.0656 95.7996 60.643Z" fill="white" fill-opacity="0.24"/>
<path d="M54.688 79.7724C48.2108 85.1085 35.5586 98.499 35.5586 100.009C35.5586 100.848 41.1296 107.292 46.6335 112.762C55.4934 121.622 64.152 128.066 73.4818 132.697C87.9127 139.879 100.666 141.288 114.828 137.362C116.64 136.859 118.117 136.355 118.117 136.254C118.117 136.154 114.929 132.898 111.069 129.039L104.022 121.991L100.397 121.958C93.6851 121.891 89.1209 120.045 84.5567 115.447C79.8918 110.816 78.046 106.251 78.1131 99.6737V96.1498L68.5149 86.4844C63.2123 81.1819 58.7488 76.8526 58.5474 76.8526C58.3796 76.8526 56.6345 78.1615 54.688 79.7724Z" fill="white" fill-opacity="0.24"/>
<path d="M34.384 131.455C33.2765 131.757 32.2026 132.63 31.6656 133.603C31.2629 134.375 31.1958 137.194 31.1958 150.182C31.1958 164.076 31.2629 165.955 31.7328 166.794C32.9745 168.842 32.6389 168.808 49.8218 168.808C62.8096 168.808 65.6287 168.741 66.4006 168.338C69.3204 166.794 69.3204 162.096 66.4006 160.552C65.6287 160.183 63.1788 160.082 52.6744 160.082H39.9215V147.229C39.9215 135.113 39.8879 134.341 39.2503 133.335C38.9147 132.764 38.3442 132.126 38.0086 131.959C37.1695 131.489 35.223 131.22 34.384 131.455Z" fill="white" fill-opacity="0.24"/>
<path d="M163.256 131.455C162.148 131.757 161.074 132.63 160.537 133.603C160.202 134.274 160.067 135.684 160.067 138.335V142.127L164.43 146.49L168.793 150.853V142.631C168.793 135.08 168.726 134.308 168.122 133.335C167.786 132.764 167.216 132.126 166.88 131.959C166.041 131.489 164.095 131.22 163.256 131.455Z" fill="white" fill-opacity="0.24"/>
<path d="M133.521 160.586C130.669 162.129 130.702 166.828 133.588 168.338C134.327 168.707 136.206 168.808 142.683 168.808H150.838L146.476 164.445L142.113 160.082H138.253C135.568 160.116 134.125 160.25 133.521 160.586Z" fill="white" fill-opacity="0.24"/>
</svg>
